# File created by Blade
# Date/Time:  Tue Apr 07 20:17:56 2015
# Frame Rate: 120.000 fps
#------------------------------------------------------
:FULLY-SPECIFIED
:DEGREES
778
root 6.586302 33.449246 -9.832104 11.323099 -27.659151 -40.912493
Spine 20.020622 20.089357 31.023462
Head -7.137266 1.996856 12.654214
LeftShoulder -22.823811 41.816094 16.078308
LeftArm 53.554427 -50.851060 -81.020318
LeftForeArm -2.245227 -0.000000 11.818395
LeftHand 11.695747 -0.000000 6.973694
LeftHandThumb1 -26.253704 0.000000 33.147579
RightShoulder 5.377569 16.225208 -17.057875
RightArm 14.708742 47.149890 69.158218
RightForeArm 92.588801 0.000000 6.391152
RightHand 16.967562 -0.000000 15.023829
RightHandThumb1 -24.326973 -0.000000 -32.862282
LeftUpLeg -2.490402 0.986353 30.108098
LeftLeg 26.192105 -0.000000 -0.000000
LeftFoot -21.396933 24.276870 -15.902833
LeftToeBase -10.512153 -0.000000 0.000000
RightUpLeg -132.371330 -33.553786 27.108849
RightLeg 73.781739 -0.000000 -0.000000
RightFoot 39.036584 -22.260083 6.436725
RightToeBase 35.229728 -0.000000 -0.000000
779
root 6.615102 33.441592 -9.843959 11.053439 -27.517478 -40.628104
Spine 20.292033 19.797036 30.883262
Head -7.535493 1.969214 12.460442
LeftShoulder -22.741706 41.823788 16.131131
LeftArm 53.566087 -50.866843 -81.040993
LeftForeArm -2.388808 0.000000 11.900724
LeftHand 11.731695 0.000000 7.026409
LeftHandThumb1 -26.253704 0.000000 33.147579
RightShoulder 5.623115 16.029521 -16.857748
RightArm 14.988378 45.461080 69.124900
RightForeArm 94.506195 -0.000000 4.873041
RightHand 16.849181 -0.000000 14.711402
RightHandThumb1 -24.326973 -0.000000 -32.862282
LeftUpLeg -2.595583 1.279551 29.988143
LeftLeg 26.364994 -0.000000 -0.000000
LeftFoot -21.431781 23.527092 -16.326872
LeftToeBase -10.367568 -0.000000 0.000000
RightUpLeg -131.910570 -33.731942 26.801416
RightLeg 74.937319 -0.000000 -0.000000
RightFoot 38.856157 -22.721116 6.079960
RightToeBase 35.099947 -0.000000 -0.000000
780
root 6.642938 33.438891 -9.862345 10.885413 -27.358026 -40.411780
Spine 20.498642 19.549587 30.790818
Head -7.932501 1.886937 12.268231
LeftShoulder -22.755531 41.892835 16.047261
LeftArm 53.756259 -50.824197 -81.071893
LeftForeArm -2.448025 -0.000000 11.947700
LeftHand 11.810666 0.000000 7.276013
LeftHandThumb1 -26.253704 0.000000 33.147579
RightShoulder 5.837743 15.894523 -16.655637
RightArm 15.261042 44.106763 69.224602
RightForeArm 95.827264 -0.000000 3.547856
RightHand 16.497812 -0.000000 14.137043
RightHandThumb1 -24.326973 -0.000000 -32.862282
LeftUpLeg -2.745600 1.542946 29.932568
LeftLeg 26.496604 -0.000000 -0.000000
LeftFoot -21.455844 22.778426 -16.720662
LeftToeBase -9.457608 -0.000000 0.000000
RightUpLeg -131.524997 -33.847687 26.667463
RightLeg 76.062728 -0.000000 -0.000000
RightFoot 38.631639 -23.184362 5.760253
RightToeBase 34.911935 -0.000000 -0.000000
781
root 6.671984 33.434202 -9.878326 10.719827 -27.176604 -40.127134
Spine 20.643110 19.319446 30.626185
Head -8.305742 1.754622 12.081527
LeftShoulder -22.611812 41.849168 16.074836
LeftArm 53.599808 -50.792625 -80.814736
LeftForeArm -2.541353 -0.000000 12.078778
LeftHand 11.771206 -0.000000 7.308857
LeftHandThumb1 -26.253704 0.000000 33.147579
RightShoulder 5.977075 15.708814 -16.422366
RightArm 15.748773 44.182881 69.982625
RightForeArm 95.512672 -0.000000 2.996325
RightHand 16.150637 -0.000000 12.743488
RightHandThumb1 -24.326973 -0.000000 -32.862282
LeftUpLeg -2.922703 1.737339 29.781491
LeftLeg 26.565963 -0.000000 -0.000000
LeftFoot -21.380045 22.292517 -16.829127
LeftToeBase -9.350724 -0.000000 0.000000
RightUpLeg -131.232965 -33.936653 26.571457
RightLeg 77.151060 -0.000000 -0.000000
RightFoot 38.500608 -24.075818 5.634851
RightToeBase 34.526132 -0.000000 -0.000000
782
root 6.702643 33.429831 -9.896024 10.565617 -26.966472 -39.772391
Spine 20.726435 19.093403 30.380088
Head -8.684854 1.612705 11.901823
LeftShoulder -22.505719 41.878966 16.012489
LeftArm 53.602752 -50.766067 -80.614961
LeftForeArm -2.605151 -0.000000 12.191181
LeftHand 11.853573 -0.000000 7.463261
LeftHandThumb1 -26.253704 0.000000 33.147579
RightShoulder 5.993451 15.422836 -16.214794
RightArm 16.434787 43.622191 70.673181
RightForeArm 95.829461 -0.000000 2.133313
RightHand 15.752190 -0.000000 11.537401
RightHandThumb1 -24.326973 -0.000000 -32.862282
LeftUpLeg -3.152303 1.846196 29.528990
LeftLeg 26.577996 -0.000000 -0.000000
LeftFoot -21.186316 22.031669 -16.739449
LeftToeBase -9.518153 -0.000000 0.000000
RightUpLeg -130.987104 -34.018757 26.479364
RightLeg 78.259090 -0.000000 -0.000000
RightFoot 38.220960 -24.621237 5.384373
RightToeBase 34.715285 -0.000000 -0.000000
783
root 6.732581 33.425268 -9.910411 10.386398 -26.737937 -39.405931
Spine 20.776585 18.777832 30.073244
Head -8.970625 1.559534 11.801426
LeftShoulder -22.501585 41.932869 15.941272
LeftArm 53.568109 -50.639045 -80.366570
LeftForeArm -2.772661 0.000000 12.301238
LeftHand 11.944215 -0.000000 7.683426
LeftHandThumb1 -26.253704 0.000000 33.147579
RightShoulder 6.216640 15.331998 -15.956522
RightArm 16.814348 43.013546 71.122018
RightForeArm 96.170408 0.000000 1.149958
RightHand 15.525007 -0.000000 10.239402
RightHandThumb1 -24.326973 -0.000000 -32.862282
LeftUpLeg -3.361603 1.796798 29.226832
LeftLeg 26.567468 -0.000000 -0.000000
LeftFoot -20.989545 21.971377 -16.599925
LeftToeBase -9.999473 -0.000000 0.000000
RightUpLeg -130.646314 -34.215957 26.245144
RightLeg 79.277820 -0.000000 -0.000000
RightFoot 38.471627 -24.610026 4.959753
RightToeBase 34.456591 -0.000000 -0.000000
